<?xml version="1.0" encoding="UTF-8"?>
<svg width="119px" height="47px" viewBox="0 0 119 47" version="1.1" xmlns="http://www.w3.org/2000/svg" xmlns:xlink="http://www.w3.org/1999/xlink">
    <!-- Generator: Sketch 52.6 (67491) - http://www.bohemiancoding.com/sketch -->
    <title>Group 39</title>
    <desc>Created with Sketch.</desc>
    <defs>
        <polygon id="path-1" points="0.377314286 0.0754666667 2.85188571 0.0754666667 2.85188571 2 0.377314286 2"></polygon>
        <polygon id="path-3" points="0.388041667 0.343041176 4.71845833 0.343041176 4.71845833 7 0.388041667 7"></polygon>
        <polygon id="path-5" points="0.286193023 0.111285714 16.6777512 0.111285714 16.6777512 18.8673102 0.286193023 18.8673102"></polygon>
        <polygon id="path-7" points="0.0882666667 0.111285714 15.8829333 0.111285714 15.8829333 18.867349 0.0882666667 18.867349"></polygon>
    </defs>
    <g id="Page-2" stroke="none" stroke-width="1" fill="none" fill-rule="evenodd">
        <g id="seccion01" transform="translate(-97.000000, -2667.000000)">
            <g id="Group-39" transform="translate(97.000000, 2667.000000)">
                <g id="Group-3" transform="translate(104.000000, 45.000000)">
                    <mask id="mask-2" fill="white">
                        <use xlink:href="#path-1"></use>
                    </mask>
                    <g id="Clip-2"></g>
                    <path d="M2.4906,0.356466667 C2.73145714,0.5438 2.85188571,0.7708 2.85188571,1.0378 C2.85188571,1.3048 2.73145714,1.53146667 2.4906,1.71913333 C2.24974286,1.90613333 1.95745714,2.00013333 1.6146,2.00013333 C1.27131429,2.00013333 0.979457143,1.90613333 0.7386,1.71913333 C0.497742857,1.53146667 0.377314286,1.3048 0.377314286,1.0378 C0.377314286,0.7708 0.497742857,0.5438 0.7386,0.356466667 C0.979457143,0.169133333 1.27131429,0.0754666667 1.6146,0.0754666667 C1.95745714,0.0754666667 2.24974286,0.169133333 2.4906,0.356466667" id="Fill-1" fill="#FFFFFF" mask="url(#mask-2)"></path>
                </g>
                <path d="M108.874769,46.1215439 C108.291467,45.5359065 108,44.8289107 108,44.0001856 C108,43.1718315 108.291467,42.4644647 108.874769,41.8788272 C109.457702,41.2931898 110.161433,41 110.986332,41 C111.694496,41 112.312893,41.2159955 112.841891,41.6472444 C112.947174,41.7274077 113,41.8116534 113,41.9003526 C113,41.9660419 112.9686,42.0358137 112.9058,42.110039 L111.873661,43.1432548 C111.77983,43.2571906 111.693018,43.3147152 111.613225,43.3147152 C111.573698,43.3147152 111.517917,43.2857673 111.446989,43.2286138 C111.376062,43.1718315 111.222017,43.1432548 110.986332,43.1432548 C110.750277,43.1432548 110.548947,43.2263871 110.382711,43.3937651 C110.216106,43.5611431 110.132989,43.7630358 110.132989,44.0001856 C110.132989,44.2373353 110.216106,44.4395992 110.382711,44.606606 C110.548947,44.7736129 110.750277,44.8574875 110.986332,44.8574875 C111.105652,44.8574875 111.214998,44.8359621 111.31474,44.7929115 C111.405615,44.7216552 111.490949,44.6860271 111.570743,44.6860271 C111.667529,44.6860271 111.753971,44.7428094 111.830809,44.8574875 L112.88031,45.9155688 C112.954193,45.9845983 112.991134,46.0528855 112.991134,46.1215439 C112.991134,46.2017072 112.939786,46.2800148 112.837828,46.3572091 C112.30846,46.7858601 111.69154,47 110.986332,47 C110.161433,47 109.457702,46.7071813 108.874769,46.1215439" id="Fill-4" fill="#FFFFFF"></path>
                <g id="Group-8" transform="translate(112.000000, 40.000000)">
                    <mask id="mask-4" fill="white">
                        <use xlink:href="#path-3"></use>
                    </mask>
                    <g id="Clip-7"></g>
                    <path d="M0.869291667,0.343041176 L2.312625,0.343041176 C2.63345833,0.343041176 2.793875,0.501982353 2.793875,0.818629412 L2.793875,5.0981 L4.23720833,5.0981 C4.55804167,5.0981 4.71845833,5.25662941 4.71845833,5.57368824 L4.71845833,6.52486471 C4.71845833,6.84151176 4.55804167,7.00004118 4.23720833,7.00004118 L0.869291667,7.00004118 C0.548458333,7.00004118 0.388041667,6.84151176 0.388041667,6.52486471 L0.388041667,0.818629412 C0.388041667,0.501982353 0.548458333,0.343041176 0.869291667,0.343041176" id="Fill-6" fill="#FFFFFF" mask="url(#mask-4)"></path>
                </g>
                <path d="M9,28.8299295 L7.88946793,32.5715646 L10.1109103,32.5715646 L9,28.8299295 Z M6.44683534,37.7143129 C6.44683534,38.1428753 6.23426074,38.4647732 5.80835505,38.678483 C5.3828276,38.8929546 4.31919812,39 2.61708834,39 L1.34050601,39 C0.446709254,38.9744767 0,38.678483 0,38.1127807 C0,37.9931642 0.0211818105,37.8598337 0.0639236782,37.7143129 L4.90207615,21.951218 C5.0809868,21.3169457 6.02130789,21 7.72341767,21 L10.2765823,21 C11.9786921,21 12.9193914,21.3169457 13.0979238,21.951218 L17.9364546,37.7143129 C17.9788182,37.8598337 18,37.9931642 18,38.1127807 C18,38.678483 17.5532907,38.9744767 16.6598722,39 L15.3829117,39 C13.6808019,39 12.6254938,38.8929546 12.2169875,38.678483 C11.8342019,38.4723921 11.6428091,38.1775412 11.6428091,37.7916446 L11.6428091,37.7143129 L6.44683534,37.7143129 Z" id="Fill-9" fill="#FFFFFF"></path>
                <path d="M24.6668971,26.1427483 L24.6668971,28.7145034 L26.0001975,28.7145034 C26.8890645,28.7145034 27.3334979,28.2855601 27.3334979,27.4284354 C27.3334979,26.5713107 26.8890645,26.1427483 26.0001975,26.1427483 L24.6668971,26.1427483 Z M24.6668971,33.8572517 L24.6668971,37.7143129 C24.6668971,38.5714376 24.2224636,39 23.3332016,39 L19.3333004,39 C18.4444335,39 18,38.5714376 18,37.7143129 L18,22.2856871 C18,21.4281814 18.4444335,21 19.3333004,21 L28.6667984,21 C32.2222661,21 34,23.1428118 34,27.4284354 C34,31.714059 32.2222661,33.8572517 28.6667984,33.8572517 L24.6668971,33.8572517 Z" id="Fill-11" fill="#FFFFFF"></path>
                <path d="M41.3190414,26.1427483 L41.3190414,28.7145034 L42.5828497,28.7145034 C43.4253885,28.7145034 43.8466579,28.2855601 43.8466579,27.4284354 C43.8466579,26.5713107 43.4253885,26.1427483 42.5828497,26.1427483 L41.3190414,26.1427483 Z M41.3190414,33.9726778 L41.3190414,37.7143129 C41.3190414,38.5714376 40.897772,39 40.0552331,39 L36.2638083,39 C35.4212694,39 35,38.5714376 35,37.7143129 L35,22.2856871 C35,21.4281814 35.4212694,21 36.2638083,21 L45.1104662,21 C48.4806216,21 50.1656993,23.1428118 50.1656993,27.4284354 C50.1656993,29.7514338 49.6732822,31.3201625 48.6873245,32.1346215 L50.5199401,33.8957271 C50.8401048,34.1959112 51,34.4999048 51,34.8088506 C51,35.1082728 50.8565812,35.408457 50.5704924,35.7086411 L47.9668601,38.5116294 C47.6717843,38.8369558 47.3684703,39 47.0569182,39 C46.770455,39 46.4794982,38.8582887 46.1847969,38.575628 L41.3695937,33.9601067 L41.3190414,33.9726778 Z" id="Fill-13" fill="#FFFFFF"></path>
                <path d="M65,22.2856871 L65,24.8570612 C65,25.7141859 64.5666795,26.1427483 63.7000385,26.1427483 L58.5001926,26.1427483 L58.5001926,27.4284354 L62.400077,27.4284354 C63.266718,27.4284354 63.7000385,27.8569977 63.7000385,28.7145034 L63.7000385,31.2858775 C63.7000385,32.1430023 63.266718,32.5715646 62.400077,32.5715646 L58.5001926,32.5715646 L58.5001926,33.8572517 L63.7000385,33.8572517 C64.5666795,33.8572517 65,34.2854331 65,35.1429388 L65,37.7143129 C65,38.5714376 64.5666795,39 63.7000385,39 L53.2999615,39 C52.4333205,39 52,38.5714376 52,37.7143129 L52,22.2856871 C52,21.4281814 52.4333205,21 53.2999615,21 L63.7000385,21 C64.5666795,21 65,21.4281814 65,22.2856871" id="Fill-15" fill="#FFFFFF"></path>
                <path d="M72.6665021,31.2858775 L72.6665021,37.7143129 C72.6665021,38.5714376 72.2220686,39 71.3332016,39 L67.3333004,39 C66.4444335,39 66,38.5714376 66,37.7143129 L66,22.2856871 C66,21.4281814 66.4444335,21 67.3333004,21 L71.3332016,21 C72.2220686,21 72.8087208,21.4159912 73.0931582,22.2464498 L75.3331029,28.7145034 L75.3331029,22.2856871 C75.3331029,21.4281814 75.7775364,21 76.6664033,21 L80.6666996,21 C81.5551715,21 82,21.4281814 82,22.2856871 L82,37.7143129 C82,38.5714376 81.5551715,39 80.6666996,39 L76.6664033,39 C75.7775364,39 75.182193,38.5672473 74.8799783,37.7013608 L72.6665021,31.2858775 Z" id="Fill-17" fill="#FFFFFF"></path>
                <path d="M90.6665021,32.5715646 C92.4442359,32.5715646 93.3331029,31.714059 93.3331029,30.0001905 C93.3331029,28.2855601 92.4442359,27.4284354 90.6665021,27.4284354 L90.6665021,32.5715646 Z M84,37.7143129 L84,22.2856871 C84,21.4281814 84.4444335,21 85.3333004,21 L90.6665021,21 C96.8885707,21 100,23.9999365 100,30.0001905 C100,36.0000635 96.8885707,39 90.6665021,39 L85.3333004,39 C84.4444335,39 84,38.5714376 84,37.7143129 Z" id="Fill-19" fill="#FFFFFF"></path>
                <path d="M110.00019,27.4284354 C109.288586,27.4284354 108.682504,27.6790967 108.1808,28.1808004 C107.679478,28.6821231 107.428816,29.2885865 107.428816,30.0001905 C107.428816,30.7110326 107.679478,31.3178769 108.1808,31.8191996 C108.682504,32.3205223 109.288586,32.5715646 110.00019,32.5715646 C110.711414,32.5715646 111.317877,32.3205223 111.819581,31.8191996 C112.320903,31.3178769 112.571565,30.7110326 112.571565,30.0001905 C112.571565,29.2885865 112.320903,28.6821231 111.819581,28.1808004 C111.317877,27.6790967 110.711414,27.4284354 110.00019,27.4284354 M110.00019,39 C107.514529,39 105.392669,38.1211615 103.635754,36.3638653 C101.878458,34.6073311 101,32.4854712 101,30.0001905 C101,27.5145288 101.878458,25.3926689 103.635754,23.6353728 C105.392669,21.8788385 107.514529,21 110.00019,21 C112.485852,21 114.607331,21.8788385 116.364627,23.6353728 C118.121542,25.3926689 119,27.5145288 119,30.0001905 C119,32.4854712 118.121542,34.6073311 116.364627,36.3638653 C114.607331,38.1211615 112.485852,39 110.00019,39" id="Fill-21" fill="#8CC63F"></path>
                <path d="M10.5,8.26484877 L9.3276131,12.214426 L11.6723869,12.214426 L10.5,8.26484877 Z M7.8049922,17.6428852 C7.8049922,18.0953877 7.58034321,18.4347646 7.13104524,18.6606231 C6.68174727,18.8868744 5.55889236,19 3.76209048,19 L2.41458658,19 C1.47152886,18.972897 1,18.6606231 1,18.0635711 C1,17.9370904 1.02223089,17.7968618 1.06708268,17.6428852 L6.17433697,1.00438279 C6.36310452,0.334663331 7.35530421,0 9.1524961,0 L11.8475039,0 C13.6443058,0 14.6368955,0.334663331 14.825663,1.00438279 L19.9329173,17.6428852 C19.9777691,17.7968618 20,17.9370904 20,18.0635711 C20,18.6606231 19.5284711,18.972897 18.5850234,19 L17.2375195,19 C15.4407176,19 14.3272231,18.8868744 13.8958658,18.6606231 C13.4914197,18.4434062 13.2893916,18.1315251 13.2893916,17.7241942 L13.2893916,17.6428852 L7.8049922,17.6428852 Z" id="Fill-23" fill="#FFFFFF"></path>
                <path d="M27.6665059,5.4284592 L27.6665059,8.1426888 L28.999807,8.1426888 C29.8885459,8.1426888 30.3331082,7.69057907 30.3331082,6.785574 C30.3331082,5.88056894 29.8885459,5.4284592 28.999807,5.4284592 L27.6665059,5.4284592 Z M27.6665059,13.571148 L27.6665059,17.6428852 C27.6665059,18.5474975 27.2219435,19 26.3332047,19 L22.3333012,19 C21.4441765,19 21,18.5474975 21,17.6428852 L21,1.3571148 C21,0.452109735 21.4441765,0 22.3333012,0 L31.6667953,0 C35.2221365,0 37,2.26133427 37,6.785574 C37,11.3098137 35.2221365,13.571148 31.6667953,13.571148 L27.6665059,13.571148 Z" id="Fill-25" fill="#FFFFFF"></path>
                <path d="M44.7139526,5.4284592 L44.7139526,8.1426888 L46.0567431,8.1426888 C46.9518072,8.1426888 47.3995336,7.69057907 47.3995336,6.785574 C47.3995336,5.88056894 46.9518072,5.4284592 46.0567431,5.4284592 L44.7139526,5.4284592 Z M44.7139526,13.693308 L44.7139526,17.6428852 C44.7139526,18.5474975 44.2662262,19 43.3711621,19 L39.3427905,19 C38.4473377,19 38,18.5474975 38,17.6428852 L38,1.3571148 C38,0.452109735 38.4473377,0 39.3427905,0 L48.7427128,0 C52.3233579,0 54.1138749,2.26133427 54.1138749,6.785574 C54.1138749,9.23741498 53.5899728,10.8930558 52.542946,11.7528891 L54.4897007,13.6119989 C54.8297707,13.9289864 55,14.2499018 55,14.5755308 C55,14.8925182 54.8476487,15.2087201 54.5433346,15.5257076 L51.7773028,18.4842571 C51.4640497,18.8279548 51.1414691,19 50.8107268,19 C50.5060241,19 50.1970462,18.850737 49.8837932,18.5518182 L44.7675865,13.6799529 L44.7139526,13.693308 Z" id="Fill-27" fill="#FFFFFF"></path>
                <path d="M68,1.3571148 L68,4.0713444 C68,4.97634947 67.5665538,5.4284592 66.7000376,5.4284592 L61.4998119,5.4284592 L61.4998119,6.785574 L65.4000753,6.785574 C66.2665914,6.785574 66.7000376,7.23807653 66.7000376,8.1426888 L66.7000376,10.8573112 C66.7000376,11.7619235 66.2665914,12.214426 65.4000753,12.214426 L61.4998119,12.214426 L61.4998119,13.5715408 L66.7000376,13.5715408 C67.5665538,13.5715408 68,14.0240433 68,14.9286556 L68,17.6428852 C68,18.5478903 67.5665538,19 66.7000376,19 L56.2999624,19 C55.43307,19 55,18.5478903 55,17.6428852 L55,1.3571148 C55,0.452109735 55.43307,0 56.2999624,0 L66.7000376,0 C67.5665538,0 68,0.452109735 68,1.3571148" id="Fill-29" fill="#FFFFFF"></path>
                <g id="Group-33" transform="translate(69.000000, 0.000000)">
                    <mask id="mask-6" fill="white">
                        <use xlink:href="#path-5"></use>
                    </mask>
                    <g id="Clip-32"></g>
                    <path d="M7.11584419,10.8291469 L7.11584419,17.5276163 C7.11584419,18.4210041 6.66040233,18.8673102 5.74991395,18.8673102 L1.65212326,18.8673102 C0.741239535,18.8673102 0.286193023,18.4210041 0.286193023,17.5276163 L0.286193023,1.45090204 C0.286193023,0.557902041 0.741239535,0.111208163 1.65212326,0.111208163 L5.74991395,0.111208163 C6.66040233,0.111208163 7.26133256,0.544718367 7.5531,1.41057551 L9.84770465,8.14975918 L9.84770465,1.45090204 C9.84770465,0.557902041 10.3031465,0.111208163 11.2140302,0.111208163 L15.3118209,0.111208163 C16.2223093,0.111208163 16.6777512,0.557902041 16.6777512,1.45090204 L16.6777512,17.5276163 C16.6777512,18.4210041 16.2223093,18.8673102 15.3118209,18.8673102 L11.2140302,18.8673102 C10.3031465,18.8673102 9.69312326,18.416351 9.38356512,17.5144327 L7.11584419,10.8291469 Z" id="Fill-31" fill="#FFFFFF" mask="url(#mask-6)"></path>
                </g>
                <g id="Group-36" transform="translate(88.000000, 0.000000)">
                    <mask id="mask-8" fill="white">
                        <use xlink:href="#path-7"></use>
                    </mask>
                    <g id="Clip-35"></g>
                    <path d="M6.66921905,12.1688796 C8.42426667,12.1688796 9.3016,11.2758796 9.3016,9.48949184 C9.3016,7.70310408 8.42426667,6.81010408 6.66921905,6.81010408 L6.66921905,12.1688796 Z M0.0882666667,17.5276551 L0.0882666667,1.45094082 C0.0882666667,0.557940816 0.526742857,0.111246939 1.40445714,0.111246939 L6.66921905,0.111246939 C12.8116952,0.111246939 15.8829333,3.23732857 15.8829333,9.48949184 C15.8829333,15.7416551 12.8116952,18.867349 6.66921905,18.867349 L1.40445714,18.867349 C0.526742857,18.867349 0.0882666667,18.4210429 0.0882666667,17.5276551 Z" id="Fill-34" fill="#FFFFFF" mask="url(#mask-8)"></path>
                </g>
                <path d="M118,1.3571148 L118,4.0713444 C118,4.97634947 117.566554,5.4284592 116.700038,5.4284592 L111.499812,5.4284592 L111.499812,6.785574 L115.400075,6.785574 C116.266591,6.785574 116.700038,7.23807653 116.700038,8.1426888 L116.700038,10.8573112 C116.700038,11.7619235 116.266591,12.214426 115.400075,12.214426 L111.499812,12.214426 L111.499812,13.5715408 L116.700038,13.5715408 C117.566554,13.5715408 118,14.0240433 118,14.9286556 L118,17.6428852 C118,18.5478903 117.566554,19 116.700038,19 L106.299962,19 C105.43307,19 105,18.5478903 105,17.6428852 L105,1.3571148 C105,0.452109735 105.43307,0 106.299962,0 L116.700038,0 C117.566554,0 118,0.452109735 118,1.3571148" id="Fill-37" fill="#8CC63F"></path>
            </g>
        </g>
    </g>
</svg>