<?xml version="1.0" encoding="UTF-8"?>
<svg width="155px" height="61px" viewBox="0 0 155 61" version="1.1" xmlns="http://www.w3.org/2000/svg" xmlns:xlink="http://www.w3.org/1999/xlink">
    <!-- Generator: Sketch 52.6 (67491) - http://www.bohemiancoding.com/sketch -->
    <title>Group 38</title>
    <desc>Created with Sketch.</desc>
    <defs>
        <polygon id="path-1" points="0.503142857 0.11315 3.80257143 0.11315 3.80257143 3 0.503142857 3"></polygon>
        <polygon id="path-3" points="0.370418605 0.146428571 21.5830233 0.146428571 21.5830233 24.8253571 0.370418605 24.8253571"></polygon>
        <polygon id="path-5" points="0.1159 0.146428571 20.8464 0.146428571 20.8464 24.8254082 0.1159 24.8254082"></polygon>
    </defs>
    <g id="Page-2" stroke="none" stroke-width="1" fill="none" fill-rule="evenodd">
        <g id="seccion01" transform="translate(-61.000000, -17.000000)">
            <g id="Group-38" transform="translate(61.000000, 17.000000)">
                <g id="Group-3" transform="translate(136.000000, 58.000000)">
                    <mask id="mask-2" fill="white">
                        <use xlink:href="#path-1"></use>
                    </mask>
                    <g id="Clip-2"></g>
                    <path d="M3.32085714,0.53465 C3.642,0.81565 3.80257143,1.15615 3.80257143,1.55665 C3.80257143,1.95715 3.642,2.29715 3.32085714,2.57865 C2.99971429,2.85915 2.61,3.00015 2.15285714,3.00015 C1.69514286,3.00015 1.306,2.85915 0.984857143,2.57865 C0.663714286,2.29715 0.503142857,1.95715 0.503142857,1.55665 C0.503142857,1.15615 0.663714286,0.81565 0.984857143,0.53465 C1.306,0.25365 1.69514286,0.11315 2.15285714,0.11315 C2.61,0.11315 2.99971429,0.25365 3.32085714,0.53465" id="Fill-1" fill="#3FA9F5" mask="url(#mask-2)"></path>
                </g>
                <path d="M141.224677,59.8287252 C140.408053,59.0478753 140,58.1052143 140,57.0002474 C140,55.8957753 140.408053,54.9526195 141.224677,54.1717697 C142.040783,53.3909198 143.026007,53 144.180864,53 C145.172294,53 146.03805,53.2879941 146.778648,53.8629925 C146.926044,53.9698769 147,54.0822045 147,54.2004701 C147,54.2880559 146.95604,54.3810849 146.86812,54.480052 L145.423125,55.857673 C145.291762,56.0095874 145.170225,56.0862869 145.058515,56.0862869 C145.003177,56.0862869 144.925083,56.0476897 144.825785,55.9714851 C144.726487,55.8957753 144.510824,55.857673 144.180864,55.857673 C143.850388,55.857673 143.568526,55.9685161 143.335796,56.1916868 C143.102549,56.4148574 142.986184,56.6840478 142.986184,57.0002474 C142.986184,57.3164471 143.102549,57.5861322 143.335796,57.8088081 C143.568526,58.0314839 143.850388,58.1433166 144.180864,58.1433166 C144.347913,58.1433166 144.500997,58.1146162 144.640635,58.0572153 C144.767861,57.962207 144.887329,57.9147028 144.99904,57.9147028 C145.13454,57.9147028 145.25556,57.9904126 145.363133,58.1433166 L146.832434,59.5540917 C146.93587,59.646131 146.987588,59.7371807 146.987588,59.8287252 C146.987588,59.9356096 146.9157,60.0400198 146.772959,60.1429455 C146.031843,60.7144801 145.168157,61 144.180864,61 C143.026007,61 142.040783,60.6095751 141.224677,59.8287252" id="Fill-4" fill="#3FA9F5"></path>
                <path d="M147.555662,53 L149.222169,53 C149.59261,53 149.777831,53.1910064 149.777831,53.5715346 L149.777831,58.7143564 L151.444338,58.7143564 C151.814779,58.7143564 152,58.9048679 152,59.285891 L152,60.4289602 C152,60.8094885 151.814779,61 151.444338,61 L147.555662,61 C147.185221,61 147,60.8094885 147,60.4289602 L147,53.5715346 C147,53.1910064 147.185221,53 147.555662,53" id="Fill-6" fill="#3FA9F5"></path>
                <path d="M12,37.439906 L10.5187862,42.4287528 L13.4812138,42.4287528 L12,37.439906 Z M8.59578045,49.2857506 C8.59578045,49.857167 8.31184332,50.2863643 7.7444734,50.5713107 C7.17710347,50.8572729 5.75893082,51 3.48945112,51 L1.78734135,51 C0.595612339,50.965969 0,50.5713107 0,49.8170409 C0,49.6575522 0.0282424141,49.4797782 0.085231571,49.2857506 L6.53610154,28.2687985 C6.77464907,27.4225942 8.02841052,27 10.2978902,27 L13.7021098,27 C15.9715895,27 17.2258553,27.4225942 17.4638985,28.2687985 L23.9152728,49.2857506 C23.9717576,49.4797782 24,49.6575522 24,49.8170409 C24,50.5713107 23.4043877,50.965969 22.2126587,51 L20.5105489,51 C18.2410692,51 16.8339918,50.8572729 16.2893166,50.5713107 C15.7789359,50.2965228 15.5232412,49.9033883 15.5232412,49.3888595 L15.5232412,49.2857506 L8.59578045,49.2857506 Z" id="Fill-8" fill="#3FA9F5"></path>
                <path d="M32.3331276,33.8569977 L32.3331276,37.2860045 L33.9997531,37.2860045 C35.1108368,37.2860045 35.6663786,36.7140801 35.6663786,35.5717551 C35.6663786,34.4284142 35.1108368,33.8569977 33.9997531,33.8569977 L32.3331276,33.8569977 Z M32.3331276,44.1430023 L32.3331276,49.2857506 C32.3331276,50.4285835 31.7775857,51 30.6665021,51 L25.6666255,51 C24.5555418,51 24,50.4285835 24,49.2857506 L24,28.7142494 C24,27.5709086 24.5555418,27 25.6666255,27 L37.3330041,27 C41.7773388,27 44,29.8570824 44,35.5717551 C44,41.2854119 41.7773388,44.1430023 37.3330041,44.1430023 L32.3331276,44.1430023 Z" id="Fill-10" fill="#3FA9F5"></path>
                <path d="M54.2937418,33.8569977 L54.2937418,37.2860045 L55.9524902,37.2860045 C57.0583224,37.2860045 57.6112385,36.7140801 57.6112385,35.5717551 C57.6112385,34.4284142 57.0583224,33.8569977 55.9524902,33.8569977 L54.2937418,33.8569977 Z M54.2937418,44.2969038 L54.2937418,49.2857506 C54.2937418,50.4285835 53.7408257,51 52.6349934,51 L47.6587484,51 C46.5524246,51 46,50.4285835 46,49.2857506 L46,28.7142494 C46,27.5709086 46.5524246,27 47.6587484,27 L59.2699869,27 C63.6933159,27 65.9049803,29.8570824 65.9049803,35.5717551 C65.9049803,38.6685784 65.2581913,40.7602167 63.9646134,41.846162 L66.3694299,44.1943028 C66.7896461,44.5945483 67,44.999873 67,45.4118008 C67,45.8110305 66.8117628,46.211276 66.4362713,46.6115214 L63.0190039,50.3488392 C62.6317169,50.7826078 62.2336173,51 61.8247051,51 C61.4487221,51 61.0668414,50.8110516 60.6800459,50.4341707 L54.3600917,44.2801422 L54.2937418,44.2969038 Z" id="Fill-12" fill="#3FA9F5"></path>
                <path d="M85,28.7142494 L85,32.1427483 C85,33.2855813 84.4333501,33.8569977 83.3000504,33.8569977 L76.5002518,33.8569977 L76.5002518,35.5717551 L81.6001007,35.5717551 C82.7334005,35.5717551 83.3000504,36.1426636 83.3000504,37.2860045 L83.3000504,40.7145034 C83.3000504,41.8573364 82.7334005,42.4287528 81.6001007,42.4287528 L76.5002518,42.4287528 L76.5002518,44.1430023 L83.3000504,44.1430023 C84.4333501,44.1430023 85,44.7139108 85,45.8572517 L85,49.2857506 C85,50.4285835 84.4333501,51 83.3000504,51 L69.6999496,51 C68.5666499,51 68,50.4285835 68,49.2857506 L68,28.7142494 C68,27.5709086 68.5666499,27 69.6999496,27 L83.3000504,27 C84.4333501,27 85,27.5709086 85,28.7142494" id="Fill-14" fill="#3FA9F5"></path>
                <path d="M95.3333333,40.7145034 L95.3333333,49.2857506 C95.3333333,50.4285835 94.7777778,51 93.6666667,51 L88.6666667,51 C87.5555556,51 87,50.4285835 87,49.2857506 L87,28.7142494 C87,27.5709086 87.5555556,27 88.6666667,27 L93.6666667,27 C94.7777778,27 95.5111111,27.5546549 95.8666667,28.6619331 L98.6666667,37.2860045 L98.6666667,28.7142494 C98.6666667,27.5709086 99.2222222,27 100.333333,27 L105.333333,27 C106.444444,27 107,27.5709086 107,28.7142494 L107,49.2857506 C107,50.4285835 106.444444,51 105.333333,51 L100.333333,51 C99.2222222,51 98.4775309,50.4229963 98.1002469,49.2684811 L95.3333333,40.7145034 Z" id="Fill-16" fill="#3FA9F5"></path>
                <path d="M118.333333,42.4287528 C120.555556,42.4287528 121.666667,41.2854119 121.666667,39.000254 C121.666667,36.7140801 120.555556,35.5717551 118.333333,35.5717551 L118.333333,42.4287528 Z M110,49.2857506 L110,28.7142494 C110,27.5709086 110.555556,27 111.666667,27 L118.333333,27 C126.111111,27 130,30.9999153 130,39.000254 C130,47.0000847 126.111111,51 118.333333,51 L111.666667,51 C110.555556,51 110,50.4285835 110,49.2857506 Z" id="Fill-18" fill="#3FA9F5"></path>
                <path d="M143.000254,35.5717551 C142.051449,35.5717551 141.243339,35.9054623 140.574401,36.5744005 C139.90597,37.2428308 139.571755,38.0514486 139.571755,39.000254 C139.571755,39.9480434 139.90597,40.7571692 140.574401,41.4255995 C141.243339,42.0945377 142.051449,42.4287528 143.000254,42.4287528 C143.948551,42.4287528 144.757169,42.0945377 145.425599,41.4255995 C146.094538,40.7571692 146.428753,39.9480434 146.428753,39.000254 C146.428753,38.0514486 146.094538,37.2428308 145.425599,36.5744005 C144.757169,35.9054623 143.948551,35.5717551 143.000254,35.5717551 M143.000254,51 C139.68553,51 136.856892,49.8282153 134.514338,47.4851538 C132.171277,45.1431081 131,42.3139616 131,39.000254 C131,35.6860384 132.171277,32.8568919 134.514338,30.5138304 C136.856892,28.1717847 139.68553,27 143.000254,27 C146.31447,27 149.143108,28.1717847 151.48617,30.5138304 C153.828723,32.8568919 155,35.6860384 155,39.000254 C155,42.3139616 153.828723,45.1431081 151.48617,47.4851538 C149.143108,49.8282153 146.31447,51 143.000254,51" id="Fill-20" fill="#8CC63F"></path>
                <path d="M14,11.439809 L12.5190902,16.4287486 L15.4809098,16.4287486 L14,11.439809 Z M10.5957796,23.2857497 C10.5957796,23.8573319 10.3120125,24.2860185 9.7444782,24.5713134 C9.17694392,24.8571045 7.75860087,25 5.4889564,25 L3.78684621,25 C2.5956154,24.9657646 2,24.5713134 2,23.8171425 C2,23.6573774 2.02808112,23.4802464 2.08473602,23.2857497 L8.5360046,2.26869405 C8.77444782,1.42273263 10.0277527,1 12.2978898,1 L15.7021102,1 C17.9717547,1 19.2255522,1.42273263 19.4639954,2.26869405 L25.915264,23.2857497 C25.9719189,23.4802464 26,23.6573774 26,23.8171425 C26,24.5713134 25.4043846,24.9657646 24.2126611,25 L22.5105509,25 C20.2409065,25 18.8343871,24.8571045 18.2895147,24.5713134 C17.7786354,24.2969341 17.523442,23.9029791 17.523442,23.3884559 L17.523442,23.2857497 L10.5957796,23.2857497 Z" id="Fill-22" fill="#3FA9F5"></path>
                <path d="M35.749789,7.8570011 L35.749789,11.2855016 L37.4997467,11.2855016 C38.6662164,11.2855016 39.2497045,10.7144157 39.2497045,9.57125137 C39.2497045,8.42808708 38.6662164,7.8570011 37.4997467,7.8570011 L35.749789,7.8570011 Z M35.749789,18.1425027 L35.749789,23.2857497 C35.749789,24.4284179 35.1663009,25 33.9998312,25 L28.7499578,25 C27.5829816,25 27,24.4284179 27,23.2857497 L27,2.71425027 C27,1.57108598 27.5829816,1 28.7499578,1 L41.0001688,1 C45.6665541,1 48,3.85642224 48,9.57125137 C48,15.2860805 45.6665541,18.1425027 41.0001688,18.1425027 L35.749789,18.1425027 Z" id="Fill-24" fill="#3FA9F5"></path>
                <path d="M57.6886445,7.8570011 L57.6886445,11.2855016 L59.4263734,11.2855016 C60.5846917,11.2855016 61.1641023,10.7144157 61.1641023,9.57125137 C61.1641023,8.42808708 60.5846917,7.8570011 59.4263734,7.8570011 L57.6886445,7.8570011 Z M57.6886445,18.2968101 L57.6886445,23.2857497 C57.6886445,24.4284179 57.1092339,25 55.9509156,25 L50.7377289,25 C49.5789077,25 49,24.4284179 49,23.2857497 L49,2.71425027 C49,1.57108598 49.5789077,1 50.7377289,1 L62.9023342,1 C67.5361103,1 69.8532498,3.85642224 69.8532498,9.57125137 C69.8532498,12.6683137 69.1752589,14.7596494 67.820283,15.8457547 L70.3396127,18.1941039 C70.7797033,18.5945091 71,18.999876 71,19.4111968 C71,19.811602 70.8028394,20.2110149 70.4095242,20.6114201 L66.8294506,24.3485353 C66.4240644,24.7826797 66.0066071,25 65.5785876,25 C65.1842665,25 64.7844128,24.8114573 64.3790265,24.4338757 L57.7580531,18.2799405 L57.6886445,18.2968101 Z" id="Fill-26" fill="#3FA9F5"></path>
                <path d="M89,2.71425027 L89,6.14275082 C89,7.28591511 88.4331857,7.8570011 87.3000492,7.8570011 L80.499754,7.8570011 L80.499754,9.57125137 L85.6000984,9.57125137 C86.7332349,9.57125137 87.3000492,10.1428335 87.3000492,11.2855016 L87.3000492,14.7144984 C87.3000492,15.8571665 86.7332349,16.4287486 85.6000984,16.4287486 L80.499754,16.4287486 L80.499754,18.1429989 L87.3000492,18.1429989 C88.4331857,18.1429989 89,18.7145811 89,19.8572492 L89,23.2857497 C89,24.428914 88.4331857,25 87.3000492,25 L73.6999508,25 C72.5663222,25 72,24.428914 72,23.2857497 L72,2.71425027 C72,1.57108598 72.5663222,1 73.6999508,1 L87.3000492,1 C88.4331857,1 89,1.57108598 89,2.71425027" id="Fill-28" fill="#3FA9F5"></path>
                <g id="Group-32" transform="translate(90.000000, 0.000000)">
                    <mask id="mask-4" fill="white">
                        <use xlink:href="#path-3"></use>
                    </mask>
                    <g id="Clip-31"></g>
                    <path d="M9.2087907,14.2488265 L9.2087907,23.062602 C9.2087907,24.2381122 8.61939535,24.8253571 7.44111628,24.8253571 L2.13809302,24.8253571 C0.959302326,24.8253571 0.370418605,24.2381122 0.370418605,23.062602 L0.370418605,1.90903061 C0.370418605,0.734030612 0.959302326,0.14627551 2.13809302,0.14627551 L7.44111628,0.14627551 C8.61939535,0.14627551 9.39706977,0.716683673 9.77465116,1.85596939 L12.7441395,10.7233163 L12.7441395,1.90903061 C12.7441395,0.734030612 13.3335349,0.14627551 14.5123256,0.14627551 L19.8153488,0.14627551 C20.9936279,0.14627551 21.5830233,0.734030612 21.5830233,1.90903061 L21.5830233,23.062602 C21.5830233,24.2381122 20.9936279,24.8253571 19.8153488,24.8253571 L14.5123256,24.8253571 C13.3335349,24.8253571 12.544093,24.2319898 12.1434884,23.0452551 L9.2087907,14.2488265 Z" id="Fill-30" fill="#3FA9F5" mask="url(#mask-4)"></path>
                </g>
                <g id="Group-35" transform="translate(114.000000, 0.000000)">
                    <mask id="mask-6" fill="white">
                        <use xlink:href="#path-5"></use>
                    </mask>
                    <g id="Clip-34"></g>
                    <path d="M8.7534,16.0116327 C11.0569,16.0116327 12.2084,14.8366327 12.2084,12.4861224 C12.2084,10.1356122 11.0569,8.96061224 8.7534,8.96061224 L8.7534,16.0116327 Z M0.1159,23.0626531 L0.1159,1.90908163 C0.1159,0.734081633 0.6914,0.146326531 1.8434,0.146326531 L8.7534,0.146326531 C16.8154,0.146326531 20.8464,4.25959184 20.8464,12.4861224 C20.8464,20.7126531 16.8154,24.8254082 8.7534,24.8254082 L1.8434,24.8254082 C0.6914,24.8254082 0.1159,24.2381633 0.1159,23.0626531 Z" id="Fill-33" fill="#3FA9F5" mask="url(#mask-6)"></path>
                </g>
                <path d="M154,2.71425027 L154,6.14275082 C154,7.28591511 153.433186,7.8570011 152.300049,7.8570011 L145.499754,7.8570011 L145.499754,9.57125137 L150.600098,9.57125137 C151.733235,9.57125137 152.300049,10.1428335 152.300049,11.2855016 L152.300049,14.7144984 C152.300049,15.8571665 151.733235,16.4287486 150.600098,16.4287486 L145.499754,16.4287486 L145.499754,18.1429989 L152.300049,18.1429989 C153.433186,18.1429989 154,18.7145811 154,19.8572492 L154,23.2857497 C154,24.428914 153.433186,25 152.300049,25 L138.699951,25 C137.566322,25 137,24.428914 137,23.2857497 L137,2.71425027 C137,1.57108598 137.566322,1 138.699951,1 L152.300049,1 C153.433186,1 154,1.57108598 154,2.71425027" id="Fill-36" fill="#8CC63F"></path>
            </g>
        </g>
    </g>
</svg>