<svg id="Capa_1" enable-background="new 0 0 512 512" height="512" viewBox="0 0 512 512" width="512" xmlns="http://www.w3.org/2000/svg"><g><g><path d="m225.422 467.315c-16.694-11.008-40.713-17.321-65.898-17.321-14.644 0-28.593 2.04-41.458 6.062-8.27 2.585-16.827 3.896-25.434 3.896-46.942 0-85.131-38.246-85.131-85.256v-151.694c0-36.639 21.695-69.729 55.27-84.302 29.158-12.656 62.615-19.346 96.753-19.346 34.25 0 67.475 6.712 96.476 19.237 29.001-12.525 62.227-19.237 96.476-19.237 34.139 0 67.596 6.69 96.755 19.347 33.573 14.572 55.268 47.662 55.268 84.301v151.693c0 23.091-9.067 44.7-25.531 60.844-16.054 15.742-37.222 24.413-59.599 24.413-.002 0-.002 0-.004 0-8.607 0-17.163-1.311-25.431-3.895-12.866-4.023-26.814-6.063-41.459-6.063-25.185 0-49.204 6.313-65.898 17.321-18.549 12.232-42.604 12.232-61.155 0z" fill="#ff6f7f"/><path d="m449.232 138.702c-29.16-12.657-62.617-19.347-96.755-19.347-34.249 0-67.475 6.712-96.476 19.237-29.001-12.525-62.227-19.237-96.476-19.237-34.138 0-67.596 6.69-96.754 19.346-11.41 4.952-21.443 12.047-29.724 20.689v215.308c0 32.921 26.729 59.704 59.584 59.704 6.017 0 12.007-.918 17.805-2.73 15.347-4.796 31.864-7.229 49.093-7.229 30.051 0 59.194 7.853 79.956 21.545 10.02 6.608 23.013 6.608 33.033 0 20.762-13.692 49.904-21.545 79.955-21.545 17.229 0 33.747 2.432 49.095 7.229 5.796 1.812 11.786 2.73 17.803 2.73h.001c15.646 0 30.458-6.073 41.708-17.1 11.527-11.299 17.876-26.43 17.876-42.604v-215.308c-8.282-8.642-18.315-15.736-29.724-20.688z" fill="#fc5c70"/><path d="m448.954 151.051v223.647c0 19.987-19.371 34.298-38.439 28.34-17.644-5.514-37.308-8.595-58.043-8.595-37.561 0-71.617 10.11-96.472 26.501l-27.799-140.877 27.799-150.619c24.855-16.392 58.911-26.491 96.472-26.491 27.511 0 53.134 5.413 74.646 14.756 13.272 5.756 21.836 18.875 21.836 33.338z" fill="#e2e2e2"/><path d="m256 129.448v291.496c-24.855-16.392-58.911-26.501-96.472-26.501-20.735 0-40.399 3.08-58.043 8.595-19.068 5.959-38.439-8.352-38.439-28.34v-223.647c0-14.463 8.564-27.582 21.835-33.339 21.512-9.342 47.135-14.756 74.646-14.756 37.562 0 71.618 10.1 96.473 26.492z" fill="#eaeaea"/><path d="m203.296 281.942c-14.196-2.736-28.867-4.119-43.768-4.119-15.044 0-29.848 1.408-44.164 4.194-7.032 1.369-12.144 7.47-12.144 14.634v29.27c0 8.88 7.714 15.829 16.538 14.828 13.653-1.548 30.066-2.329 39.77-2.329 9.62 0 25.887.769 39.44 2.292 8.801.989 16.491-5.941 16.491-14.798v-29.334c0-7.171-5.121-13.281-12.163-14.638z" fill="#36d39a"/><path d="m478.753 74.381-26.48-26.481c-16.518-16.518-43.299-16.518-59.817 0l-130.184 130.183 14.433 71.865 71.865 14.433 130.183-130.183c16.519-16.518 16.519-43.299 0-59.817z" fill="#80dfb5"/><path d="m257.332 232.935-45.214 45.214c-7.387 7.387-8.513 18.97-2.687 27.641l8.874 13.208c5.358 7.975 16.664 9.074 23.458 2.28l51.956-51.956z" fill="#80dfb5"/><path d="m262.272 178.083-14.283 14.283c-23.831 23.831-23.831 62.467 0 86.298 11.912 11.912 27.531 17.875 43.149 17.868 15.618.007 31.237-5.956 43.149-17.868l14.283-14.283z" fill="#77718c"/></g><g><path d="m112.552 166.697c14.974-3.815 30.778-5.75 46.977-5.75 16.08 0 31.781 1.909 46.667 5.672 4.016 1.015 8.094-1.417 9.109-5.433 1.016-4.016-1.417-8.094-5.433-9.109-16.087-4.067-33.025-6.13-50.344-6.13-17.446 0-34.497 2.091-50.68 6.214-4.014 1.022-6.439 5.105-5.416 9.12 1.022 4.007 5.1 6.44 9.12 5.416z"/><path d="m103.433 206.103c1.019 4.001 5.091 6.442 9.119 5.416 14.974-3.814 30.778-5.749 46.977-5.749 16.08 0 31.781 1.908 46.667 5.672 4.016 1.016 8.094-1.417 9.109-5.433 1.016-4.016-1.417-8.094-5.433-9.109-16.087-4.067-33.025-6.13-50.344-6.13-17.446 0-34.497 2.091-50.68 6.214-4.014 1.022-6.438 5.105-5.415 9.119z"/><path d="m103.433 250.926c1.023 4.015 5.106 6.438 9.119 5.416 14.974-3.815 30.778-5.749 46.977-5.749 16.08 0 31.781 1.908 46.667 5.672 4.016 1.016 8.094-1.417 9.109-5.433 1.016-4.016-1.417-8.094-5.433-9.11-16.087-4.067-33.025-6.129-50.344-6.129-17.446 0-34.497 2.09-50.68 6.213-4.014 1.023-6.438 5.106-5.415 9.12z"/><path d="m403.152 331.452c-16.183-4.123-33.234-6.214-50.68-6.214-17.318 0-34.256 2.063-50.344 6.13-4.016 1.015-6.448 5.094-5.433 9.109 1.015 4.016 5.094 6.448 9.11 5.433 14.886-3.764 30.587-5.672 46.667-5.672 16.198 0 32.003 1.935 46.977 5.75 4.023 1.024 8.099-1.41 9.12-5.417 1.022-4.014-1.403-8.097-5.417-9.119z"/><path d="m181.185 305.029c-6.958-1.759-14.277-2.651-21.751-2.651-7.531 0-14.898.904-21.898 2.688-4.014 1.022-6.438 5.105-5.416 9.12 1.024 4.016 5.107 6.438 9.12 5.416 5.79-1.476 11.912-2.224 18.194-2.224 6.236 0 12.317.738 18.075 2.194 4.016 1.015 8.094-1.417 9.11-5.433 1.014-4.016-1.418-8.095-5.434-9.11z"/><path d="m92.632 467.444c26.561 0 32.277-9.958 66.893-9.958 23.755 0 46.27 5.862 61.77 16.083 21.082 13.901 48.328 13.902 69.413 0 15.5-10.221 38.014-16.083 61.77-16.083 34.568 0 40.43 9.958 66.894 9.958 24.354 0 47.385-9.432 64.85-26.558 17.914-17.565 27.78-41.076 27.78-66.199v-38.999c0-4.142-3.358-7.5-7.5-7.5s-7.5 3.358-7.5 7.5v38.999c0 21.061-8.268 40.767-23.282 55.489-20.812 20.407-50.482 27.171-77.544 18.714-38.998-12.194-85.591-6.396-113.724 12.156-16.067 10.594-36.831 10.594-52.899 0-17.887-11.795-43.411-18.56-70.026-18.56-37 0-43.268 9.958-66.893 9.958-42.809 0-77.634-34.881-77.634-77.756v-151.693c0-29.772 15.597-56.993 40.547-72.139v.188 59.789c0 4.143 3.357 7.5 7.5 7.5 4.149 0 7.5-3.366 7.5-7.5v-59.789c0-11.478 6.817-21.903 17.322-26.46 21.294-9.247 46.073-14.135 71.659-14.135 33.292 0 64.705 8.182 88.972 23.105v47.687c-2.062 3.02-25.885 19.737-25.885 54.267 0 6.482.912 12.821 2.641 18.888-19.381 19.437-18.621 18.498-20.119 20.274-11.195-2.393-28.582-4.354-45.609-4.354-15.486 0-30.828 1.458-45.597 4.333-10.552 2.054-18.21 11.304-18.21 21.996v29.27c0 13.368 11.642 23.784 24.882 22.281 13.826-1.567 29.87-2.281 38.925-2.281 8.972 0 24.879.703 38.603 2.245 11.106 1.247 21.338-5.91 24.113-16.66 8.551 3.541 18.329 1.569 24.823-4.925l1.434-1.434v82.633c-27.066-14.445-59.016-20.838-88.972-20.838-20.305 0-40.669 2.807-60.279 8.936-14.114 4.417-28.702-6.088-28.702-21.181v-133.858c0-4.142-3.358-7.5-7.5-7.5-4.143 0-7.5 3.358-7.5 7.5v133.857c0 25.041 24.236 42.979 48.177 35.498 17.523-5.477 36.299-8.253 55.805-8.253 34.846 0 67.641 8.972 92.343 25.263 2.514 1.647 5.755 1.649 8.258 0 26.801-17.676 60.618-25.263 92.343-25.263 18.715 0 37.583 2.558 55.805 8.253 23.85 7.451 48.177-10.36 48.177-35.498v-207.593l9.509-9.508c19.539 15.936 31.035 39.948 31.035 65.406v82.694c0 4.142 3.358 7.5 7.5 7.5s7.5-3.358 7.5-7.5v-82.694c0-29.468-13.083-57.29-35.386-76.058l7.443-7.443c9.406-9.406 14.586-21.911 14.586-35.212s-5.18-25.807-14.586-35.212l-26.481-26.48c-9.406-9.406-21.911-14.585-35.212-14.585s-25.806 5.18-35.212 14.585l-53.736 53.736c-28.638 2.578-55.835 11.094-77.416 24.242-26.563-16.223-60.598-25.119-96.472-25.119-27.624 0-54.47 5.317-77.631 15.375-9.738 4.224-17.374 11.724-21.866 20.886-.082.035-.166.068-.247.104-36.317 15.762-59.784 51.553-59.784 91.181v151.693c0 51.146 41.555 92.756 92.632 92.756zm180.142-181.663c-14.717-5.362-26.48-17.016-31.909-31.908-6.988-19.172-2.446-41.33 12.422-56.205.161-.161 8.985-8.985 8.985-8.985l75.692 75.692-8.98 8.979c-15.149 15.149-37.113 19.385-56.21 12.427zm-36.314 30.186c-3.455 3.455-9.206 2.896-11.93-1.159l-8.874-13.208c-3.825-5.702-3.028-13.355 1.765-18.155 1.752-1.752 12.032-12.031 14.111-14.11.033.058.069.114.102.173 5.984 10.438 14.71 19.324 25.546 25.529.044.025.087.053.132.078-.891.891-20.727 20.727-20.852 20.852zm-28.501 9.941c0 4.404-3.803 7.833-8.153 7.344-14.297-1.606-30.901-2.338-40.277-2.338-9.464 0-26.21.744-40.615 2.377-4.388.497-8.192-2.973-8.192-7.376v-29.27c0-3.528 2.555-6.586 6.076-7.272 13.828-2.691 28.205-4.056 42.731-4.056 13.259 0 26.401 1.139 39.116 3.386-1.22 7.219.31 14.938 4.562 21.263.094.139 4.971 7.399 4.753 7.076v8.866zm233.495 48.782c0 14.998-14.502 25.621-28.702 21.181-18.973-5.929-39.254-8.936-60.28-8.936-30.631 0-62.375 6.663-88.972 20.838v-97.633l8.75-8.75c6.083 1.733 12.549 2.635 18.851 2.635h.001.064.001c9.534 0 18.763-1.954 27.255-5.641 11.048-1.966 22.498-2.969 34.049-2.969 16.198 0 32.003 1.934 46.977 5.749 4.022 1.024 8.099-1.41 9.12-5.416 1.023-4.014-1.402-8.097-5.416-9.12-16.183-4.123-33.234-6.213-50.68-6.213-3.191 0-6.376.071-9.549.212l10.95-10.95 87.581-87.581zm-43.695-321.494c13.568-13.567 35.644-13.567 49.211 0l26.481 26.481c6.573 6.572 10.192 15.311 10.192 24.605s-3.62 18.033-10.192 24.605l-124.88 124.879-75.692-75.691zm-113.567 92.354-20.692 20.692v-32.685c14.923-9.155 32.928-15.882 52.325-19.641z"/></g></g></svg>